<?xml version="1.0" standalone="no"?>
<!DOCTYPE svg PUBLIC "-//W3C//DTD SVG 20010904//EN"
 "http://www.w3.org/TR/2001/REC-SVG-20010904/DTD/svg10.dtd">
<svg version="1.0" xmlns="http://www.w3.org/2000/svg"
 width="64.000000pt" height="64.000000pt" viewBox="0 0 64.000000 64.000000"
 preserveAspectRatio="xMidYMid meet">

<g transform="translate(0.000000,64.000000) scale(0.100000,-0.100000)"
fill="#000000" stroke="none">
<path d="M400 535 l0 -85 40 0 c39 0 40 -1 40 -36 l0 -36 40 36 c32 29 48 36
80 36 l40 0 0 85 0 85 -120 0 -120 0 0 -85z"/>
<path d="M245 561 c-34 -15 -73 -64 -100 -126 -15 -33 -34 -75 -42 -93 -15
-31 -14 -34 11 -66 14 -19 46 -47 71 -63 24 -15 44 -34 42 -42 -1 -8 -36 -27
-77 -41 -41 -15 -76 -32 -78 -38 -1 -5 4 -17 13 -26 24 -24 406 -24 430 0 9 9
14 21 12 27 -1 5 -36 22 -77 37 -41 15 -76 32 -77 37 -2 6 12 20 31 32 52 32
96 87 96 120 0 34 -9 44 -27 30 -10 -9 -13 -3 -13 35 0 45 -1 46 -31 46 l-31
0 4 -57 c4 -45 1 -65 -15 -92 -28 -50 -68 -91 -87 -91 -9 0 -28 12 -41 28 -75
81 -85 162 -24 188 18 7 46 25 63 39 30 25 31 25 37 5 7 -22 13 -24 34 -11 11
7 12 22 8 61 -4 29 -9 55 -11 58 -10 9 -101 12 -121 3z m101 -418 c9 -32 -3
-43 -46 -43 -43 0 -55 11 -46 43 4 19 12 22 46 22 34 0 42 -3 46 -22z"/>
</g>
</svg>
