<?xml version="1.0" standalone="no"?>
<!DOCTYPE svg PUBLIC "-//W3C//DTD SVG 20010904//EN"
 "http://www.w3.org/TR/2001/REC-SVG-20010904/DTD/svg10.dtd">
<svg version="1.0" xmlns="http://www.w3.org/2000/svg"
 width="64.000000pt" height="64.000000pt" viewBox="0 0 64.000000 64.000000"
 preserveAspectRatio="xMidYMid meet">

<g transform="translate(0.000000,64.000000) scale(0.100000,-0.100000)"
fill="#000000" stroke="none">
<path d="M20 530 c0 -18 7 -20 80 -20 73 0 80 -2 80 -20 0 -19 -7 -20 -90 -20
-83 0 -90 -1 -90 -20 0 -18 7 -20 60 -20 53 0 60 -2 60 -20 0 -17 -7 -20 -50
-20 -43 0 -50 -3 -50 -20 0 -11 7 -20 15 -20 12 0 15 -13 15 -55 l0 -55 150 0
150 0 0 155 0 155 -165 0 c-158 0 -165 -1 -165 -20z"/>
<path d="M380 315 l0 -105 -165 0 -165 0 0 -45 c0 -38 3 -45 20 -45 11 0 20 6
20 13 0 22 44 57 71 57 26 0 69 -37 69 -58 0 -8 28 -12 95 -12 72 0 95 3 95
13 0 22 44 57 72 57 24 0 60 -31 70 -60 2 -5 12 -7 24 -4 19 5 21 13 21 75 0
65 -1 69 -22 69 -12 0 -37 3 -54 6 -29 6 -31 9 -31 50 0 44 0 44 35 44 39 0
44 9 17 33 -14 13 -38 17 -95 17 l-77 0 0 -105z"/>
<path d="M126 154 c-31 -30 -9 -84 34 -84 24 0 50 26 50 50 0 24 -26 50 -50
50 -10 0 -26 -7 -34 -16z m50 -25 c10 -17 -13 -36 -27 -22 -12 12 -4 33 11 33
5 0 12 -5 16 -11z"/>
<path d="M456 154 c-31 -30 -9 -84 34 -84 24 0 50 26 50 50 0 24 -26 50 -50
50 -10 0 -26 -7 -34 -16z m50 -25 c10 -17 -13 -36 -27 -22 -12 12 -4 33 11 33
5 0 12 -5 16 -11z"/>
</g>
</svg>
