<svg id="icono-shuffle-ppal" xmlns="http://www.w3.org/2000/svg" width="24" height="24" viewBox="0 0 24 24">
  <path id="Trazado_28286" data-name="Trazado 28286" d="M469.016,543.172h-5a1,1,0,0,0,0,2H466.6l-15.293,15.293a1,1,0,1,0,1.414,1.414l15.293-15.293v2.586a1,1,0,0,0,2,0v-5a1,1,0,0,0-1-1" transform="translate(-448.016 -541.172)" fill="#187385"/>
  <path id="Trazado_28287" data-name="Trazado 28287" d="M469.016,556.172a1,1,0,0,0-1,1v2.586l-4.293-4.293a1,1,0,0,0-1.414,1.414l4.293,4.293h-2.586a1,1,0,0,0,0,2h5c.008,0,.014,0,.022,0a.981.981,0,0,0,.972-.964c0-.012.006-.021.006-.032v-5a1,1,0,0,0-1-1" transform="translate(-448.016 -541.172)" fill="#187385"/>
  <path id="Trazado_28288" data-name="Trazado 28288" d="M456.309,550.879a1,1,0,0,0,1.414-1.414l-5-5a1,1,0,0,0-1.414,1.414Z" transform="translate(-448.016 -541.172)" fill="#187385"/>
  <rect id="Rectángulo_13181" data-name="Rectángulo 13181" width="24" height="24" fill="none"/>
</svg>
